Simulation
nRows=28
nColumns=15
endheader
time  TH_x TH_y TH_z SC_y  SC_z  SC_x  AC_y  AC_z  AC_x  GH_y  GH_z  GH_yy  EL_x  PS_y
5.745  0.000000  0.000000  0.000000  -52.88499640270118  18.4965723677384  17.053539156939305  46.77066345773698  12.102168893348473  14.205862617279884  35.61586488120219  54.86749360096096  -45.29460718413713  18.58444811006912  120.000000
5.80245  0.000000  0.000000  0.000000  -51.662331042890735  17.866343268429993  14.511475423829353  46.242349528365516  11.762568578153806  13.148573067575064  36.91751422768363  54.019143744541765  -46.00836619461713  18.8771580822338  120.000000
5.8599  0.000000  0.000000  0.000000  -50.20962814989267  17.06990225948186  11.407126203914114  45.587682080691856  11.3614013030596  12.130409862633716  38.33544472443145  52.74979685771441  -46.53013600753862  19.270405046447696  120.000000
5.91735  0.000000  0.000000  0.000000  -48.567831594710974  16.067588422012935  7.863964066022224  44.802523493381045  10.954595913256984  11.234176083750965  39.73936693402044  51.031345629549925  -46.772074185931864  19.67461474467413  120.000000
5.9748  0.000000  0.000000  0.000000  -46.77841852876158  14.84215730790876  4.034333713309382  43.88898490830329  10.628924499025425  10.525802414059847  41.01949743649412  48.84452409159001  -46.693671639176294  19.98087793450571  120.000000
6.03225  0.000000  0.000000  0.000000  -44.88209378499118  13.40365639561459  0.08619373559824059  42.871817955375604  10.485808391186033  10.047769086287769  42.106180294106245  46.19275313952898  -46.31743162182341  20.09494371024898  120.000000
6.089700000000001  0.000000  0.000000  0.000000  -42.92282835108051  11.786679620491347  -3.812268176963516  41.80401577611249  10.61966771831502  9.819589037299428  42.985186011425064  43.11680015238753  -45.72855929155035  19.964901536841833  120.000000
6.14715  0.000000  0.000000  0.000000  -40.96063108540346  10.045467171250234  -7.508999640874268  40.75796922337999  11.09467681485585  9.842122376347536  43.70326933922932  39.70628288645057  -45.05835163675014  19.58970962631952  120.000000
6.2046  0.000000  0.000000  0.000000  -39.0806526104711  8.25390355658546  -10.886729546332191  39.812947169275326  11.926446784189338  10.098922786125314  44.37038641269101  36.100257770096285  -44.46464119410311  19.0071207891371  120.000000
6.26205  0.000000  0.000000  0.000000  -37.384894539612716  6.500198934110455  -13.875575349456035  39.03663157366492  13.074826774643421  10.557904170449008  45.157858250098414  32.46625830502331  -44.11642551604754  18.27758663583617  120.000000
6.3195  0.000000  0.000000  0.000000  -35.969137216806466  4.874286308896648  -16.449767753616726  38.46848720752191  14.452929976936828  11.178231256559886  46.28539900856641  28.966723925521823  -44.18216232068966  17.47522701653147  120.000000
6.37695  0.000000  0.000000  0.000000  -34.895012491229345  3.455446780968401  -18.613431889930425  38.117960278435135  15.95025026682196  11.914789609705895  47.99252813002068  25.73060504441034  -44.81606031120002  16.683477982443335  120.000000
6.4344  0.000000  0.000000  0.000000  -34.1768043987595  2.2997252966767485  -20.383793901230952  37.967219345580155  17.456864435705047  12.722587286884519  50.49330279933104  22.839792423548168  -46.139163990909516  15.987449497797206  120.000000
6.49185  0.000000  0.000000  0.000000  -33.78684267448432  1.4376792372029752  -21.781919706366857  37.97884585831751  18.881007091143477  13.559436677477196  53.92975872558752  20.334358544138286  -48.222415790525496  15.462093982713682  120.000000
6.549300000000001  0.000000  0.000000  0.000000  -33.66875223462684  0.873658935584748  -22.83167096576297  38.10582963676793  20.15743342917371  14.385551264966962  58.33630374076257  18.22586231558239  -51.07491019203485  15.156917446449949  120.000000
6.60675  0.000000  0.000000  0.000000  -33.754152034436494  0.5825353315117087  -23.561746343986698  38.29943400277315  21.24797639488686  15.162907964501573  63.61793404509537  16.507945752608297  -54.631978456966536  15.086718979685818  120.000000
6.6642  0.000000  0.000000  0.000000  -33.97483371110448  0.5168739554468701  -24.007074037895833  38.515231766585615  22.13788541267767  15.85532564742829  69.54884754507464  15.158629293960315  -58.743921859951804  15.235207588120868  120.000000
6.72165  0.000000  0.000000  0.000000  -34.26965471186314  0.6189597116041794  -24.207785196815806  38.71530705000264  22.830552567104792  16.43014425989882  75.79918835475254  14.135488409633423  -63.17841325761891  15.563400499052998  120.000000
6.7791  0.000000  0.000000  0.000000  -34.58916205419791  0.830463518404952  -24.207046098778118  38.874432261762145  23.339821319904946  16.861714265519392  82.01179319846601  13.377701162621209  -67.66885227461256  16.013299281287484  120.000000
6.83655  0.000000  0.000000  0.000000  -34.89277140376404  1.093965304811488  -24.04714177650465  38.9855423339533  23.68170415550198  17.135776188682925  87.89737933543715  12.81718600702819  -71.98706741430644  16.507995155240092  120.000000
6.894  0.000000  0.000000  0.000000  -35.15082770453874  1.3609139062390831  -23.765477242306844  39.059009980606874  23.87052767849004  17.250748092174167  93.28606507422703  12.393718882229143  -75.99042876406203  16.96017384967824  120.000000
6.95145  0.000000  0.000000  0.000000  -35.3450848815361  1.6011136560442563  -23.392674349151765  39.117774466087795  23.922352984949203  17.213810050045083  98.11234667627777  12.062800754810754  -79.61766954479391  17.29111637789049  120.000000
7.008900000000001  0.000000  0.000000  0.000000  -35.46884350287996  1.7990410358175268  -22.951057625882058  39.18447940256417  23.85651584257686  17.03971988834347  102.37484743250506  11.793109862848382  -82.8634619451713  17.455899705606587  120.000000
7.06635  0.000000  0.000000  0.000000  -35.532112453248104  1.948552285493811  -22.453915802552793  39.26858111701772  23.69273563681036  16.75205558989066  106.10445179618996  11.561447313114323  -85.75842461971723  17.463670982581146  120.000000
7.1238  0.000000  0.000000  0.000000  -35.55829100535565  2.050428824279028  -21.908044673603715  39.36622341698491  23.451459462285186  16.377062382408244  109.34175156145999  11.349707873702686  -88.35063348830033  17.374447137623527  120.000000
7.18125  0.000000  0.000000  0.000000  -35.572158978272604  2.1131507390116324  -21.31786101536364  39.47368470009048  23.155901412585017  15.934480372612903  112.12013396754914  11.14736275065424  -90.6841032541014  17.27292415886905  120.000000
7.2387  0.000000  0.000000  0.000000  -35.592279565176426  2.150161909387684  -20.687264041648984  39.595154758791516  22.828638524741653  15.43749718237772  114.45595206039549  10.95204028923327  -92.77977944136742  17.23412028757273  120.000000
7.29615  0.000000  0.000000  0.000000  -35.62834070016962  2.1720404747778925  -20.01937332679379  39.735136043672576  22.48312055040462  14.901773785351741  116.37178285933187  10.760270777971156  -94.64764099194768  17.29509312084612  120.000000
